<svg xmlns="http://www.w3.org/2000/svg" width="1200" height="675" viewBox="0 0 1200 675">
  <rect width="1200" height="675" fill="#081826"/>
  <text x="60" y="70" fill="#ffffff" font-size="36" font-family="Arial, sans-serif" font-weight="700">5G IDS — Capstone 1 Architecture</text>
  <text x="60" y="108" fill="#9cc7e8" font-size="18" font-family="Arial, sans-serif">Machine-learning-based intrusion detection for 5G network traffic</text>
  <g font-family="Arial, sans-serif">
    <rect x="55" y="185" rx="18" ry="18" width="195" height="130" fill="#123452" stroke="#48a9e6" stroke-width="2"/>
    <text x="152" y="225" text-anchor="middle" fill="#ffffff" font-size="21" font-weight="700">5G Datasets</text>
    <text x="152" y="258" text-anchor="middle" fill="#cce8f8" font-size="16">Benign + Attacks</text>
    <text x="152" y="284" text-anchor="middle" fill="#cce8f8" font-size="15">CSV traffic files</text>

    <rect x="295" y="185" rx="18" ry="18" width="205" height="130" fill="#123452" stroke="#48a9e6" stroke-width="2"/>
    <text x="397" y="225" text-anchor="middle" fill="#ffffff" font-size="21" font-weight="700">Preprocessing</text>
    <text x="397" y="258" text-anchor="middle" fill="#cce8f8" font-size="16">Schema mapping</text>
    <text x="397" y="284" text-anchor="middle" fill="#cce8f8" font-size="15">8 common features</text>

    <rect x="545" y="185" rx="18" ry="18" width="205" height="130" fill="#123452" stroke="#48a9e6" stroke-width="2"/>
    <text x="647" y="225" text-anchor="middle" fill="#ffffff" font-size="21" font-weight="700">ML Classifier</text>
    <text x="647" y="258" text-anchor="middle" fill="#cce8f8" font-size="16">Neural network</text>
    <text x="647" y="284" text-anchor="middle" fill="#cce8f8" font-size="15">4-class prediction</text>

    <rect x="795" y="185" rx="18" ry="18" width="205" height="130" fill="#123452" stroke="#48a9e6" stroke-width="2"/>
    <text x="897" y="225" text-anchor="middle" fill="#ffffff" font-size="21" font-weight="700">Web Dashboard</text>
    <text x="897" y="258" text-anchor="middle" fill="#cce8f8" font-size="16">CSV upload</text>
    <text x="897" y="284" text-anchor="middle" fill="#cce8f8" font-size="15">Charts + analysis</text>

    <rect x="545" y="410" rx="18" ry="18" width="455" height="125" fill="#102c45" stroke="#59d0b0" stroke-width="2"/>
    <text x="772" y="452" text-anchor="middle" fill="#ffffff" font-size="21" font-weight="700">Traffic Classification Output</text>
    <text x="772" y="487" text-anchor="middle" fill="#d8fff4" font-size="17">Benign  •  Flooding  •  Fuzzing  •  Replay</text>
    <text x="772" y="516" text-anchor="middle" fill="#b6e8dc" font-size="15">Security score, attack distribution and risk visualization</text>

    <line x1="250" y1="250" x2="295" y2="250" stroke="#8dd3ff" stroke-width="4"/>
    <polygon points="295,250 282,242 282,258" fill="#8dd3ff"/>
    <line x1="500" y1="250" x2="545" y2="250" stroke="#8dd3ff" stroke-width="4"/>
    <polygon points="545,250 532,242 532,258" fill="#8dd3ff"/>
    <line x1="750" y1="250" x2="795" y2="250" stroke="#8dd3ff" stroke-width="4"/>
    <polygon points="795,250 782,242 782,258" fill="#8dd3ff"/>
    <line x1="897" y1="315" x2="897" y2="410" stroke="#70e0c0" stroke-width="4"/>
    <polygon points="897,410 889,396 905,396" fill="#70e0c0"/>
  </g>
  <text x="60" y="620" fill="#8fb3cc" font-size="16" font-family="Arial, sans-serif">Capstone 1 · 5G Network Security · Intrusion Detection · Machine Learning</text>
</svg>