<svg xmlns="http://www.w3.org/2000/svg" width="1200" height="675" viewBox="0 0 1200 675">
<rect width="1200" height="675" fill="#f7fafc"/>
<text x="60" y="70" font-family="Arial" font-size="36" font-weight="700" fill="#102a43">5G IDS Detection Workflow</text>
<text x="60" y="105" font-family="Arial" font-size="18" fill="#486581">From 5G traffic data to security visualization</text>
<g font-family="Arial">
<g fill="#ffffff" stroke="#1f6f9f" stroke-width="2">
<rect x="50" y="205" width="160" height="105" rx="16"/><rect x="240" y="205" width="160" height="105" rx="16"/><rect x="430" y="205" width="160" height="105" rx="16"/><rect x="620" y="205" width="160" height="105" rx="16"/><rect x="810" y="205" width="160" height="105" rx="16"/><rect x="1000" y="205" width="150" height="105" rx="16"/>
</g>
<g fill="#102a43" font-size="18" font-weight="700" text-anchor="middle">
<text x="130" y="247">Traffic CSV</text><text x="320" y="247">Feature</text><text x="320" y="272">Extraction</text><text x="510" y="247">Normalize</text><text x="700" y="247">ML</text><text x="700" y="272">Prediction</text><text x="890" y="247">Attack</text><text x="890" y="272">Category</text><text x="1075" y="247">Dashboard</text>
</g>
<g stroke="#1f6f9f" stroke-width="4" fill="#1f6f9f"><line x1="210" y1="258" x2="240" y2="258"/><line x1="400" y1="258" x2="430" y2="258"/><line x1="590" y1="258" x2="620" y2="258"/><line x1="780" y1="258" x2="810" y2="258"/><line x1="970" y1="258" x2="1000" y2="258"/></g>
<rect x="275" y="420" width="650" height="120" rx="18" fill="#e8f5f1" stroke="#23967f" stroke-width="2"/>
<text x="600" y="462" text-anchor="middle" fill="#174c42" font-size="22" font-weight="700">Classification Results</text>
<text x="600" y="500" text-anchor="middle" fill="#285e55" font-size="18">Benign  |  Flooding  |  Fuzzing  |  Replay</text>
<text x="600" y="527" text-anchor="middle" fill="#486581" font-size="15">Charts · attack distribution · risk level · overall security score</text>
</g>
</svg>